Coordinates
version=1
nRows=21
nColumns=33
inDegrees=yes

Units are S.I. units (second, meters, Newtons, ...)
Angles are in degrees.

endheader
time	ground_thorax_rot_x	ground_thorax_rot_y	ground_thorax_rot_z	ground_thorax_tx	ground_thorax_ty	ground_thorax_tz	clav_prot_r	clav_elev_r	scapula_abduction_r	scapula_elevation_r	scapula_upward_rot_r	scapula_winging_r	shoulder_elv_r	plane_of_elev_r	axial_rot_r	elbow_flexion_r	pro_sup_r	wrist_flex_r	wrist_dev_r	clav_prot_l	clav_elev_l	scapula_abduction_l	scapula_elevation_l	scapula_upward_rot_l	scapula_winging_l	shoulder_elv_l	plane_of_elev_l	axial_rot_l	elbow_flexion_l	pro_sup_l	wrist_flex_l	wrist_dev_l
      8.09000000	     18.32014455	     37.94694338	     58.32056138	    -74.83221939	    779.03202717	      5.63015028	     17.85130225	     45.00000000	     45.00000000	     45.00000000	     41.14350138	   2125.87958288	  -3738.57275998	    -90.00000000	    -69.63533316	   2514.03357583	    -83.36620314	     15.06426037	      9.74983785	      5.81018693	    -45.00000000	    -36.71852095	     45.00000000	    -30.39294721	  -3136.16642983	   -280.88833103	     14.76394221	    179.99999979	    725.83377339	    227.26386604	      7.46801250	    -14.10786146
      8.10000000	     17.37362809	     38.33393578	     60.07785079	    -71.01424795	    778.86397503	      5.63810809	     17.67786840	     45.00000000	     45.00000000	     45.00000000	     40.02884569	   2125.74944559	  -3738.92347917	    -90.00000000	    -69.26358189	   2513.50654826	    -81.90357768	     15.02053434	      9.62502289	      6.35216708	    -45.00000000	    -36.03650072	     45.00000000	    -31.96867305	  -3136.39090649	   -280.91048681	     14.81716178	    179.99999979	    726.14802524	    227.99063277	      7.32791242	    -13.88736302
      8.11000000	     16.62041151	     38.46478667	     61.32067241	    -67.46832394	    778.88155026	      5.66816361	     17.90335611	     45.00000000	     45.00000000	     45.00000000	     39.30480095	   2125.55667132	  -3739.06441322	    -90.00000000	    -69.10295376	   2513.28940234	    -80.56284193	     14.98455443	      9.44782958	      6.58123367	    -45.00000000	    -35.49591160	     45.00000000	    -33.69948013	  -3136.97058447	   -280.80661702	     14.78321279	    179.99999979	    726.04264782	    228.70598330	      7.08336924	    -13.69640137
      8.12000000	     16.21114947	     38.56503412	     62.04875452	    -64.17676810	    779.05713040	      5.72257246	     18.71871236	     45.00000000	     45.00000000	     45.00000000	     39.21497743	   2125.60947273	  -3738.77032157	    -90.00000000	    -69.37019032	   2513.35475596	    -78.94885787	     15.10416611	      9.37214539	      6.28788564	    -45.00000000	    -34.93038288	     45.00000000	    -35.85054862	  -3137.69886144	   -280.71429148	     14.93300773	    179.99999979	    725.50370820	    229.67539935	      6.91977044	    -13.76603929
      8.13000000	     15.71401314	     38.56117284	     62.74877008	    -61.16171172	    779.35756567	      5.80279221	     17.93335491	     45.00000000	     45.00000000	     45.00000000	     39.02090328	   2125.25225045	  -3739.07405042	    -90.00000000	    -69.04859517	   2512.99878684	    -78.06591813	     14.98105019	      9.18739293	      6.83263895	    -45.00000000	    -34.87915681	     45.00000000	    -36.61365674	  -3138.18084150	   -280.65712210	     14.69599836	    179.99999979	    725.38963517	    230.31941946	      6.61387783	    -13.49865930
      8.14000000	     15.26166772	     38.46818040	     63.28134599	    -58.41331568	    779.74910308	      5.91010368	     17.88101148	     45.00000000	     45.00000000	     45.00000000	     38.95335667	   2125.00024770	  -3739.00949303	    -90.00000000	    -69.09832295	   2513.06444217	    -77.48560171	     15.01306721	      9.11811781	      6.87747650	    -45.00000000	    -35.05078097	     45.00000000	    -37.50021170	  -3138.48177630	   -280.61768239	     14.59372623	    179.99999979	    724.82898973	    230.86532185	      6.28632236	    -13.36100827
      8.15000000	     14.93737045	     38.46102180	     63.88524823	    -55.92073326	    780.20039013	      6.04511010	     17.92312911	     45.00000000	     45.00000000	     45.00000000	     38.90367251	   2124.98487980	  -3738.74506685	    -90.00000000	    -69.34766512	   2513.17500371	    -77.07673678	     15.04066795	      9.10940733	      6.96532869	    -45.00000000	    -34.65036736	     45.00000000	    -38.30714172	  -3138.71861432	   -280.59415499	     14.70794777	    179.99999979	    724.71151011	    231.50223323	      6.22896702	    -13.39269248
      8.16000000	     14.55819145	     38.49548863	     64.49509466	    -53.67461906	    780.68345943	      6.20743667	     17.98060350	     45.00000000	     45.00000000	     45.00000000	     38.82239947	   2124.87012064	  -3738.50935230	    -90.00000000	    -69.56806716	   2513.26539116	    -76.79358930	     15.01683381	      9.06414346	      6.96336866	    -45.00000000	    -34.50555196	     45.00000000	    -39.24983379	  -3139.07460752	   -280.61390448	     14.74893775	    179.99999979	    724.62609705	    232.16179252	      6.07641793	    -13.30798904
      8.17000000	     14.02751104	     38.58052396	     65.38452873	    -51.65442365	    781.17814167	      6.39699118	     18.03517064	     45.00000000	     45.00000000	     45.00000000	     38.46063384	   2124.82330668	  -3738.29316974	    -90.00000000	    -69.76905478	   2513.41572814	    -76.64691836	     15.01041662	      9.07151297	      7.05833966	    -45.00000000	    -34.23874331	     45.00000000	    -40.23458334	  -3139.21738468	   -280.56737419	     14.82182490	    179.99999979	    724.43825213	    232.75997730	      5.97860625	    -13.32513473
      8.18000000	     13.52368558	     38.70448812	     66.29883536	    -49.84076193	    781.67059542	      6.61346418	     18.24949828	     45.00000000	     45.00000000	     45.00000000	     38.11389004	   2124.84932228	  -3738.05976254	    -90.00000000	    -69.98617993	   2513.56833656	    -76.68145804	     15.02945961	      9.06439962	      7.12195260	    -45.00000000	    -33.92493017	     45.00000000	    -41.24433951	  -3139.38391191	   -280.55196092	     14.91579343	    179.99999979	    724.39652392	    233.35804848	      5.90916533	    -13.31875602
      8.19000000	     12.85224445	     38.86532485	     67.35132370	    -48.21583775	    782.15314314	      6.85585091	     18.39779336	     45.00000000	     45.00000000	     45.00000000	     37.51285180	   2124.83271249	  -3737.91813736	    -90.00000000	    -70.11227777	   2513.72815980	    -76.79929533	     15.00672837	      9.08011378	      7.22125289	    -45.00000000	    -33.68472900	     45.00000000	    -42.21849813	  -3139.44484389	   -280.48850488	     14.98961941	    179.99999979	    724.18186141	    233.81927813	      5.80209983	    -13.32465343
      8.20000000	     12.43711847	     38.96323812	     68.09257107	    -46.75740639	    782.62415307	      7.12266974	     18.65758027	     45.00000000	     45.00000000	     45.00000000	     37.32252854	   2124.82018884	  -3737.75420365	    -90.00000000	    -70.26055988	   2513.90804792	    -77.08747412	     15.10786249	      9.08535238	      7.26426208	    -45.00000000	    -33.45680541	     45.00000000	    -43.07669639	  -3139.60232040	   -280.54695130	     15.03125570	    179.99999979	    724.11346042	    234.19247095	      5.77178685	    -13.36133099
      8.21000000	     12.41003145	     38.85680645	     68.09326993	    -45.45083464	    783.08326187	      7.40950730	     18.65749537	     45.00000000	     45.00000000	     45.00000000	     37.65714690	   2124.67620297	  -3737.65626244	    -90.00000000	    -70.34431217	   2514.11492282	    -77.32766710	     15.11271433	      9.11757976	      7.18438603	    -45.00000000	    -33.40632433	     45.00000000	    -43.42076939	  -3139.81640904	   -280.58271017	     15.03268204	    179.99999979	    723.85839973	    234.37775661	      5.70158796	    -13.40947118
      8.22000000	     12.23466465	     38.89051506	     68.27886000	    -44.28049795	    783.53170952	      7.71048498	     18.45781745	     45.00000000	     45.00000000	     45.00000000	     37.67116579	   2124.57237500	  -3737.54204945	    -90.00000000	    -70.44355444	   2514.21120746	    -77.60451926	     15.18780389	      9.11581744	      7.18778692	    -45.00000000	    -33.27843985	     45.00000000	    -43.46749225	  -3139.88656709	   -280.67455307	     15.13266776	    179.99999979	    723.88145389	    234.47137190	      5.73770772	    -13.46320546
      8.23000000	     11.96127839	     38.89441752	     68.70763017	    -43.23634843	    783.96887148	      8.01809746	     18.53028978	     45.00000000	     45.00000000	     45.00000000	     37.68581943	   2124.48942128	  -3737.53759828	    -90.00000000	    -70.43363046	   2514.37957032	    -77.88887301	     15.31188332	      9.12856070	      7.15600648	    -45.00000000	    -33.21432755	     45.00000000	    -43.71086395	  -3139.87831249	   -280.74665972	     15.09617450	    179.99999979	    723.73536024	    234.44791624	      5.70762849	    -13.49665433
      8.24000000	     12.11779668	     38.74366203	     68.43848299	    -42.30851901	    784.39365431	      8.32640948	     18.49401576	     45.00000000	     45.00000000	     45.00000000	     38.21424627	   2124.39256628	  -3737.48059494	    -90.00000000	    -70.47686276	   2514.53585361	    -78.05375590	     15.35354858	      9.16376908	      7.07064012	    -45.00000000	    -33.15877928	     45.00000000	    -43.70955275	  -3140.03482806	   -280.83557248	     15.17590184	    179.99999979	    723.73282061	    234.35307774	      5.75020462	    -13.55855554
      8.25000000	     12.16123601	     38.72563191	     68.25779125	    -41.50349952	    784.79722315	      8.62684212	     18.28396323	     45.00000000	     45.00000000	     45.00000000	     38.51270369	   2124.20535933	  -3737.43468738	    -90.00000000	    -70.50921021	   2514.60248716	    -78.15517766	     15.49863227	      9.13941198	      6.93042956	    -45.00000000	    -33.19391076	     45.00000000	    -43.44849739	  -3140.21851118	   -280.98693043	     15.15727889	    179.99999979	    723.84069037	    234.18357614	      5.79869415	    -13.58965367
      8.26000000	     12.15703316	     38.65796565	     68.26541466	    -40.81051791	    785.17859812	      8.91950783	     18.12804112	     45.00000000	     45.00000000	     45.00000000	     38.78320734	   2124.11118379	  -3737.46968700	    -90.00000000	    -70.46104175	   2514.69896220	    -78.19238466	     15.53814526	      9.16784368	      6.90129743	    -45.00000000	    -33.25259887	     45.00000000	    -43.37359995	  -3140.21091837	   -281.13998503	     15.17716317	    179.99999979	    723.91071026	    233.97214760	      5.83912510	    -13.61668978
      8.27000000	     12.16700908	     38.65159262	     68.27359542	    -40.23402209	    785.52942796	      9.20140218	     18.07019106	     45.00000000	     45.00000000	     45.00000000	     38.95469423	   2124.02654058	  -3737.40362676	    -90.00000000	    -70.51449952	   2514.69936936	    -78.20193179	     15.74842422	      9.13229013	      6.80149533	    -45.00000000	    -33.18535202	     45.00000000	    -43.20773866	  -3140.31412453	   -281.24713194	     15.10214733	    179.99999979	    724.02144557	    233.74548190	      5.87754268	    -13.64339023
      8.28000000	     12.12915048	     38.52011628	     68.23006060	    -39.77569002	    785.84134518	      9.47007945	     18.01180514	     45.00000000	     45.00000000	     44.78954877	     39.01690599	   2124.09344579	  -3737.44864179	    -90.00000000	    -70.45728117	   2514.82231591	    -78.13450646	     15.65100155	      9.18411854	      6.73261444	    -45.00000000	    -33.25518404	     45.00000000	    -43.14496946	  -3140.22072632	   -281.35713662	     15.20039693	    179.99999979	    723.88849856	    233.49295886	      5.87389749	    -13.68783896
      8.29000000	     12.09996228	     38.58480233	     68.24737927	    -39.42537281	    786.11307720	      9.72909560	     17.95090237	     45.00000000	     45.00000000	     44.93610589	     39.13760897	   2123.82328534	  -3737.26523122	    -90.00000000	    -70.62814263	   2514.79980746	    -78.10743536	     16.01403183	      9.12078798	      6.71135015	    -45.00000000	    -33.07842229	     45.00000000	    -42.89377672	  -3140.37051320	   -281.39641983	     15.16955314	    179.99999979	    724.15462843	    233.27337849	      5.93023802	    -13.69355204
